<svg width="162" height="47" viewBox="0 0 162 47" fill="none" xmlns="http://www.w3.org/2000/svg">
<path d="M7.896 0.822499C8.366 0.509166 8.883 0.274166 9.447 0.1175C10.011 -0.0391666 10.575 -0.0391666 11.139 0.1175C14.2723 1.02617 17.4997 1.87217 20.821 2.6555C20.4137 3.65817 19.881 4.5825 19.223 5.4285C18.565 6.2745 17.8913 7.1205 17.202 7.9665C15.6353 7.46517 14.288 7.10483 13.16 6.8855C12.0633 6.63483 11.139 6.4625 10.387 6.3685C9.635 6.24317 9.024 6.14917 8.554 6.0865C8.11533 6.02383 7.78633 5.91417 7.567 5.7575C7.50433 5.9455 7.44167 6.16483 7.379 6.4155C7.34767 6.66617 7.31633 6.86983 7.285 7.0265C7.285 8.6245 7.26933 10.2225 7.238 11.8205C7.20667 13.3872 7.22233 14.9695 7.285 16.5675C8.28767 15.8468 9.19633 15.0322 10.011 14.1235C10.857 13.1835 11.75 12.3532 12.69 11.6325C14.1 12.1338 15.4317 12.7292 16.685 13.4185C17.9383 14.1078 19.223 14.7502 20.539 15.3455C20.6957 19.5755 20.7113 23.7742 20.586 27.9415C20.492 32.1088 20.4763 36.3075 20.539 40.5375C19.2857 41.3835 18.0637 42.2608 16.873 43.1695C15.7137 44.1095 14.4603 44.8928 13.113 45.5195C12.8623 45.1748 12.5803 44.8302 12.267 44.4855C11.985 44.1408 11.8753 43.7335 11.938 43.2635C12.1573 42.6682 12.4237 42.0885 12.737 41.5245C13.0817 40.9605 13.2853 40.3495 13.348 39.6915C13.5047 38.4068 13.5517 37.1378 13.489 35.8845C13.4263 34.6312 13.4263 33.3622 13.489 32.0775C13.4263 29.9782 13.4263 27.8788 13.489 25.7795C13.5517 23.6802 13.5203 21.5965 13.395 19.5285C12.9563 19.2778 12.5333 19.0428 12.126 18.8235C11.7187 18.6042 11.2957 18.3848 10.857 18.1655C10.7003 18.2282 10.528 18.2908 10.34 18.3535C10.152 18.3848 9.99533 18.4162 9.87 18.4475C9.43133 18.9488 8.977 19.4188 8.507 19.8575C8.037 20.2648 7.59833 20.7348 7.191 21.2675C7.12833 22.9595 7.11267 24.6515 7.144 26.3435C7.17533 28.0355 7.17533 29.7275 7.144 31.4195C7.52 31.5762 7.91167 31.7328 8.319 31.8895C8.72633 32.0148 9.13367 32.1715 9.541 32.3595C9.19633 33.3622 8.71067 34.3022 8.084 35.1795C7.45733 36.0568 6.87767 36.9498 6.345 37.8585C5.24833 37.7018 4.16733 37.4355 3.102 37.0595C2.03667 36.6835 1.00267 36.2605 0 35.7905C0 30.9652 0.0156666 26.1712 0.0469999 21.4085C0.0783333 16.6145 0.094 11.8048 0.094 6.9795C0.0313333 6.63483 0.125333 6.3685 0.376 6.1805C0.626667 5.9925 0.861667 5.8045 1.081 5.6165C2.209 4.80183 3.337 4.00283 4.465 3.2195C5.593 2.40483 6.73667 1.60583 7.896 0.822499Z" fill="black"/>
<path d="M25.3407 1.1985C26.4374 1.35517 27.5027 1.63717 28.5367 2.0445C29.5707 2.4205 30.589 2.78083 31.5917 3.1255C31.529 4.03417 31.341 4.92716 31.0277 5.8045C30.7144 6.68183 30.3697 7.5435 29.9937 8.3895C28.9284 8.35817 27.8787 8.13883 26.8447 7.7315C25.8107 7.32417 24.7924 6.9795 23.7897 6.6975C23.8837 6.10216 23.962 5.60083 24.0247 5.1935C24.1187 4.75483 24.2127 4.3475 24.3067 3.9715C24.432 3.5955 24.573 3.20383 24.7297 2.7965C24.8864 2.35783 25.09 1.82517 25.3407 1.1985ZM24.8237 9.3765C25.8577 9.3765 26.8447 9.59583 27.7847 10.0345C28.756 10.4418 29.743 10.8178 30.7457 11.1625C30.9024 11.6952 30.9807 12.1808 30.9807 12.6195V13.6065V14.1235V17.5075C30.9807 19.7635 30.9807 22.0352 30.9807 24.3225C31.012 26.5785 31.0277 28.8345 31.0277 31.0905V31.3255C31.0277 31.6075 31.1217 31.8268 31.3097 31.9835C31.529 32.1402 31.764 32.2812 32.0147 32.4065C32.2654 32.5005 32.4847 32.5945 32.6727 32.6885C32.892 32.7825 33.0017 32.9078 33.0017 33.0645C33.0017 33.3778 32.8764 33.7695 32.6257 34.2395C32.4064 34.6782 32.1244 35.1482 31.7797 35.6495C31.4664 36.1195 31.1217 36.5738 30.7457 37.0125C30.3697 37.4512 30.0407 37.8115 29.7587 38.0935C29.2887 38.0622 28.8187 37.9838 28.3487 37.8585C27.91 37.7018 27.4714 37.5452 27.0327 37.3885C26.594 37.2318 26.1554 37.0752 25.7167 36.9185C25.278 36.7618 24.8237 36.6522 24.3537 36.5895C24.103 35.9315 23.9777 35.3048 23.9777 34.7095V31.3255V25.0275C23.9777 23.8995 24.009 22.7715 24.0717 21.6435C24.1657 20.5155 24.2127 19.3875 24.2127 18.2595C24.2127 17.8208 24.1657 17.3665 24.0717 16.8965C23.9777 16.4265 23.8837 15.9722 23.7897 15.5335C23.3824 15.3768 23.022 15.1575 22.7087 14.8755C22.4267 14.5622 22.2857 14.2175 22.2857 13.8415C22.2857 13.5595 22.3797 13.2305 22.5677 12.8545C22.7557 12.4472 22.9907 12.0398 23.2727 11.6325C23.5547 11.2252 23.8367 10.8335 24.1187 10.4575C24.4007 10.0502 24.6357 9.68983 24.8237 9.3765Z" fill="black"/>
<path d="M35.5081 11.2095C35.6335 11.0528 35.7588 10.8648 35.8841 10.6455C36.0095 10.4262 36.1348 10.2068 36.2601 9.9875C36.4168 9.76817 36.5891 9.59583 36.7771 9.4705C36.9651 9.31383 37.1688 9.2355 37.3881 9.2355C37.7015 9.2355 38.0931 9.29817 38.5631 9.4235C39.0331 9.5175 39.5031 9.64283 39.9731 9.7995C40.4745 9.95617 40.9601 10.1285 41.4301 10.3165C41.9001 10.4732 42.2918 10.6298 42.6051 10.7865C42.7618 11.0685 42.8715 11.3505 42.9341 11.6325C43.0281 11.8832 43.1065 12.1652 43.1691 12.4785C43.7958 11.9145 44.3911 11.3192 44.9551 10.6925C45.5191 10.0345 46.1771 9.53317 46.9291 9.1885C47.5245 9.2825 48.1981 9.45483 48.9501 9.7055C49.7335 9.92483 50.4698 10.1912 51.1591 10.5045C51.8485 10.7865 52.4281 11.1155 52.8981 11.4915C53.3681 11.8362 53.6031 12.1652 53.6031 12.4785C53.6031 13.3872 53.6188 14.2802 53.6501 15.1575C53.6815 16.0035 53.6971 16.8808 53.6971 17.7895C53.6971 19.1995 53.6815 20.6095 53.6501 22.0195C53.6188 23.4295 53.6031 24.8552 53.6031 26.2965C53.6031 27.2052 53.6031 28.0982 53.6031 28.9755C53.6031 29.8215 53.6345 30.6988 53.6971 31.6075C54.0105 31.7642 54.3238 31.9208 54.6371 32.0775C54.9505 32.2342 55.2638 32.4065 55.5771 32.5945C55.2325 33.5345 54.8095 34.4588 54.3081 35.3675C53.8068 36.2762 53.2428 37.1378 52.6161 37.9525C52.1148 37.8272 51.5195 37.6862 50.8301 37.5295C50.1408 37.3415 49.4671 37.1378 48.8091 36.9185C48.1825 36.6678 47.6498 36.3702 47.2111 36.0255C46.7725 35.6808 46.5531 35.2578 46.5531 34.7565C46.5531 34.1612 46.5688 33.5658 46.6001 32.9705C46.6315 32.3752 46.6471 31.7798 46.6471 31.1845C46.6471 29.6178 46.6315 28.0825 46.6001 26.5785C46.5688 25.0432 46.5531 23.4922 46.5531 21.9255C46.5531 21.2675 46.5688 20.5938 46.6001 19.9045C46.6315 19.2152 46.6471 18.5258 46.6471 17.8365C46.6471 17.2412 46.5688 16.7868 46.4121 16.4735C46.2555 16.1288 46.0361 15.8782 45.7541 15.7215C45.4721 15.5648 45.1431 15.4865 44.7671 15.4865C44.3911 15.4552 43.9995 15.4395 43.5921 15.4395C43.4355 15.8782 43.2945 16.3168 43.1691 16.7555C43.0438 17.1628 42.9811 17.6015 42.9811 18.0715C42.9811 18.7922 42.9811 19.4972 42.9811 20.1865C43.0125 20.8758 43.0281 21.5808 43.0281 22.3015C43.0281 23.3982 43.0125 24.4948 42.9811 25.5915C42.9811 26.6568 42.9811 27.7378 42.9811 28.8345C42.9811 29.3358 42.9811 29.8372 42.9811 30.3385C42.9811 30.8085 42.9968 31.2942 43.0281 31.7955C43.1221 31.8268 43.2788 31.8738 43.4981 31.9365C43.7175 31.9992 43.9368 32.0775 44.1561 32.1715C44.3755 32.2342 44.5635 32.3125 44.7201 32.4065C44.8768 32.4692 44.9551 32.5318 44.9551 32.5945C44.9551 33.0332 44.8298 33.5345 44.5791 34.0985C44.3598 34.6625 44.0778 35.2108 43.7331 35.7435C43.4198 36.2448 43.0751 36.7148 42.6991 37.1535C42.3545 37.5608 42.0725 37.8428 41.8531 37.9995C40.7878 37.7802 39.7695 37.4982 38.7981 37.1535C37.8268 36.8088 36.8711 36.4172 35.9311 35.9785V31.6545V19.9515V15.6745C35.7745 15.5805 35.5708 15.4865 35.3201 15.3925C35.1008 15.2985 34.8815 15.1888 34.6621 15.0635C34.4428 14.9382 34.2548 14.8128 34.0981 14.6875C33.9415 14.5622 33.8631 14.4212 33.8631 14.2645C33.8631 13.6692 34.0825 13.1365 34.5211 12.6665C34.9598 12.1965 35.2888 11.7108 35.5081 11.2095Z" fill="black"/>
<path d="M74.6364 10.9745V33.1585C74.6364 33.4405 74.3387 33.7852 73.7434 34.1925C73.1794 34.5685 72.4744 34.9758 71.6284 35.4145C70.7824 35.8218 69.8894 36.2448 68.9494 36.6835C68.0407 37.0908 67.2574 37.4512 66.5994 37.7645C66.38 37.8898 66.1607 37.9525 65.9414 37.9525C65.6907 37.9525 65.205 37.8272 64.4844 37.5765C63.7637 37.3258 62.949 37.0282 62.0404 36.6835C61.163 36.3075 60.27 35.9158 59.3614 35.5085C58.484 35.1012 57.7477 34.7252 57.1524 34.3805V27.3305V13.0895C58.155 12.7448 59.142 12.4002 60.1134 12.0555C61.0847 11.7108 62.0404 11.3505 62.9804 10.9745C62.6357 10.5358 62.197 10.1285 61.6644 9.7525C61.1317 9.3765 60.5364 8.98483 59.8784 8.5775C59.2517 8.13883 58.6094 7.65317 57.9514 7.1205C57.2934 6.58783 56.6667 5.9455 56.0714 5.1935C56.3534 4.84883 56.6824 4.42583 57.0584 3.9245C57.4344 3.39183 57.826 2.8905 58.2334 2.4205C58.6407 1.9505 59.0324 1.54317 59.4084 1.1985C59.7844 0.853833 60.1134 0.681501 60.3954 0.681501C60.74 0.681501 60.9907 0.7755 61.1474 0.9635C63.3407 2.59283 65.534 4.23783 67.7274 5.8985C69.9207 7.52783 72.1767 9.0945 74.4954 10.5985L74.6364 10.9745ZM63.9204 14.0765C63.9204 16.1445 63.9517 18.2282 64.0144 20.3275C64.077 22.3955 64.1084 24.4635 64.1084 26.5315C64.1084 27.1582 64.1084 27.7848 64.1084 28.4115C64.1084 29.0382 64.0927 29.6648 64.0614 30.2915C64.6254 30.6675 65.205 30.9808 65.8004 31.2315C66.3957 31.4508 67.0067 31.6702 67.6334 31.8895C67.696 30.9495 67.7274 30.0252 67.7274 29.1165C67.7274 28.1765 67.7274 27.2208 67.7274 26.2495C67.7274 24.3382 67.7117 22.4425 67.6804 20.5625C67.649 18.6825 67.6334 16.8025 67.6334 14.9225C67.6334 14.2958 67.3984 13.8415 66.9284 13.5595C66.4584 13.2462 65.9727 13.0112 65.4714 12.8545C65.2207 13.0738 64.9544 13.2775 64.6724 13.4655C64.4217 13.6535 64.171 13.8572 63.9204 14.0765Z" fill="black"/>
<path d="M77.3007 12.5725C78.5853 11.8205 79.8857 11.1468 81.2017 10.5515C82.549 9.92483 83.865 9.25117 85.1497 8.5305C86.7477 9.0005 88.3143 9.45483 89.8497 9.8935C91.385 10.3322 92.936 10.7708 94.5027 11.2095C94.4713 11.7422 94.3617 12.2435 94.1737 12.7135C93.9857 13.1522 93.7663 13.5908 93.5157 14.0295C93.265 14.4682 92.9987 14.9068 92.7167 15.3455C92.4347 15.7842 92.184 16.2228 91.9647 16.6615C91.2753 16.6302 90.6017 16.5205 89.9437 16.3325C89.317 16.1132 88.6903 15.8782 88.0637 15.6275C87.437 15.3768 86.7947 15.1575 86.1367 14.9695C85.51 14.7502 84.852 14.6092 84.1627 14.5465C84.1 15.5492 84.0687 16.5518 84.0687 17.5545C84.0687 18.5258 84.0687 19.5128 84.0687 20.5155C84.3507 20.6408 84.6327 20.7662 84.9147 20.8915C85.1967 21.0168 85.4787 21.1265 85.7607 21.2205C86.1993 20.6878 86.6223 20.1708 87.0297 19.6695C87.437 19.1682 87.86 18.6512 88.2987 18.1185C89.3953 18.5885 90.492 19.0585 91.5887 19.5285C92.6853 19.9985 93.735 20.5468 94.7377 21.1735C94.769 22.0508 94.8003 22.9125 94.8317 23.7585C94.863 24.6045 94.8787 25.4505 94.8787 26.2965C94.8787 27.6125 94.863 28.9128 94.8317 30.1975C94.8003 31.4822 94.7847 32.7668 94.7847 34.0515C93.4373 34.7722 92.0587 35.4615 90.6487 36.1195C89.27 36.7775 87.8757 37.4042 86.4657 37.9995C85.5257 37.9995 84.5857 37.8428 83.6457 37.5295C82.7057 37.1848 81.797 36.8715 80.9197 36.5895C80.0737 36.3388 79.212 36.1038 78.3347 35.8845C77.4573 35.6652 76.6427 35.2892 75.8907 34.7565C76.11 34.3492 76.392 33.8635 76.7367 33.2995C77.1127 32.7355 77.4887 32.2028 77.8647 31.7015C78.2407 31.1688 78.5853 30.7145 78.8987 30.3385C79.2433 29.9625 79.5097 29.7275 79.6977 29.6335C81.1077 30.0095 82.4863 30.4952 83.8337 31.0905C85.181 31.6545 86.5597 32.1088 87.9697 32.4535C87.9697 31.7015 87.9697 30.9652 87.9697 30.2445C88.001 29.4925 88.0167 28.7405 88.0167 27.9885C88.0167 27.7065 88.0167 27.3932 88.0167 27.0485C88.048 26.6725 88.0323 26.3435 87.9697 26.0615C87.907 25.7482 87.7817 25.4975 87.5937 25.3095C87.4057 25.0902 87.1237 24.9805 86.7477 24.9805C86.4657 24.9805 86.1993 25.0902 85.9487 25.3095C85.698 25.4975 85.4473 25.7325 85.1967 26.0145C84.9773 26.2965 84.758 26.5785 84.5387 26.8605C84.3193 27.1425 84.0687 27.3618 83.7867 27.5185C82.596 27.2678 81.4837 26.8448 80.4497 26.2495C79.4157 25.6228 78.3503 25.0588 77.2537 24.5575C77.2537 23.3668 77.238 22.1762 77.2067 20.9855C77.1753 19.7635 77.1597 18.5572 77.1597 17.3665C77.1597 16.5518 77.1597 15.7528 77.1597 14.9695C77.191 14.1862 77.238 13.3872 77.3007 12.5725Z" fill="black"/>
<path d="M99.0536 1.1985C100.15 1.35517 101.216 1.63717 102.25 2.0445C103.284 2.4205 104.302 2.78083 105.305 3.1255C105.242 4.03417 105.054 4.92716 104.741 5.8045C104.427 6.68183 104.083 7.5435 103.707 8.3895C102.641 8.35817 101.592 8.13883 100.558 7.7315C99.5236 7.32417 98.5053 6.9795 97.5026 6.6975C97.5966 6.10216 97.6749 5.60083 97.7376 5.1935C97.8316 4.75483 97.9256 4.3475 98.0196 3.9715C98.1449 3.5955 98.2859 3.20383 98.4426 2.7965C98.5993 2.35783 98.8029 1.82517 99.0536 1.1985ZM98.5366 9.3765C99.5706 9.3765 100.558 9.59583 101.498 10.0345C102.469 10.4418 103.456 10.8178 104.459 11.1625C104.615 11.6952 104.694 12.1808 104.694 12.6195V13.6065V14.1235V17.5075C104.694 19.7635 104.694 22.0352 104.694 24.3225C104.725 26.5785 104.741 28.8345 104.741 31.0905V31.3255C104.741 31.6075 104.835 31.8268 105.023 31.9835C105.242 32.1402 105.477 32.2812 105.728 32.4065C105.978 32.5005 106.198 32.5945 106.386 32.6885C106.605 32.7825 106.715 32.9078 106.715 33.0645C106.715 33.3778 106.589 33.7695 106.339 34.2395C106.119 34.6782 105.837 35.1482 105.493 35.6495C105.179 36.1195 104.835 36.5738 104.459 37.0125C104.083 37.4512 103.754 37.8115 103.472 38.0935C103.002 38.0622 102.532 37.9838 102.062 37.8585C101.623 37.7018 101.184 37.5452 100.746 37.3885C100.307 37.2318 99.8683 37.0752 99.4296 36.9185C98.9909 36.7618 98.5366 36.6522 98.0666 36.5895C97.8159 35.9315 97.6906 35.3048 97.6906 34.7095V31.3255V25.0275C97.6906 23.8995 97.7219 22.7715 97.7846 21.6435C97.8786 20.5155 97.9256 19.3875 97.9256 18.2595C97.9256 17.8208 97.8786 17.3665 97.7846 16.8965C97.6906 16.4265 97.5966 15.9722 97.5026 15.5335C97.0953 15.3768 96.7349 15.1575 96.4216 14.8755C96.1396 14.5622 95.9986 14.2175 95.9986 13.8415C95.9986 13.5595 96.0926 13.2305 96.2806 12.8545C96.4686 12.4472 96.7036 12.0398 96.9856 11.6325C97.2676 11.2252 97.5496 10.8335 97.8316 10.4575C98.1136 10.0502 98.3486 9.68983 98.5366 9.3765Z" fill="black"/>
<path d="M108.563 12.7605C109.879 12.0085 111.226 11.3348 112.605 10.7395C113.984 10.1128 115.347 9.4705 116.694 8.8125C117.383 9.03183 118.229 9.29817 119.232 9.6115C120.266 9.92483 121.253 10.2695 122.193 10.6455C123.164 11.0215 123.995 11.3975 124.684 11.7735C125.373 12.1495 125.718 12.4942 125.718 12.8075V13.0425C125.718 17.0845 125.718 21.1108 125.718 25.1215C125.749 29.1008 125.765 33.1272 125.765 37.2005C125.765 37.7645 125.843 38.3285 126 38.8925C126.188 39.4565 126.282 40.0518 126.282 40.6785C126.282 40.9918 125.984 41.3678 125.389 41.8065C124.825 42.2765 124.167 42.7465 123.415 43.2165C122.663 43.6865 121.911 44.1252 121.159 44.5325C120.407 44.9398 119.859 45.2688 119.514 45.5195C119.263 45.7388 118.997 45.8798 118.715 45.9425C118.433 46.0052 118.135 46.0365 117.822 46.0365C116.224 46.0365 114.61 45.9268 112.981 45.7075C111.352 45.5195 109.722 45.3942 108.093 45.3315C108.156 44.2975 108.375 43.2948 108.751 42.3235C109.127 41.3835 109.534 40.4592 109.973 39.5505C111.508 39.7072 113.012 39.8638 114.485 40.0205C115.989 40.1772 117.493 40.3495 118.997 40.5375C118.84 39.6288 118.746 38.7045 118.715 37.7645C118.684 36.7932 118.637 35.8532 118.574 34.9445C118.323 35.1012 118.041 35.3518 117.728 35.6965C117.415 36.0098 117.086 36.3388 116.741 36.6835C116.396 36.9968 116.052 37.2788 115.707 37.5295C115.394 37.7802 115.112 37.9055 114.861 37.9055C114.328 37.9055 113.811 37.7802 113.31 37.5295C112.809 37.2475 112.307 37.0282 111.806 36.8715C111.242 36.5268 110.631 36.2605 109.973 36.0725C109.315 35.8845 108.751 35.5555 108.281 35.0855C108.187 31.7642 108.14 28.4585 108.14 25.1685C108.171 21.8472 108.124 18.5258 107.999 15.2045V15.0165V14.0765C107.999 13.8258 108.03 13.5908 108.093 13.3715C108.156 13.1208 108.312 12.9172 108.563 12.7605ZM115.049 14.8755C115.049 15.6588 115.033 16.4422 115.002 17.2255C115.002 18.0088 115.002 18.7922 115.002 19.5755C115.002 23.3982 115.049 27.2052 115.143 30.9965C115.864 31.3725 116.631 31.7015 117.446 31.9835C117.634 31.8268 117.822 31.6545 118.01 31.4665C118.229 31.2785 118.417 31.1062 118.574 30.9495C118.637 29.9782 118.668 29.0225 118.668 28.0825C118.668 27.1425 118.668 26.1868 118.668 25.2155C118.668 23.7115 118.652 22.2232 118.621 20.7505C118.59 19.2778 118.574 17.7895 118.574 16.2855C118.041 15.9408 117.477 15.6588 116.882 15.4395C116.287 15.2202 115.676 15.0322 115.049 14.8755Z" fill="black"/>
<path d="M130.58 1.2925C131.301 1.26117 132.006 1.1515 132.695 0.9635C133.385 0.7755 134.058 0.681501 134.716 0.681501C134.873 0.681501 135.014 0.681501 135.139 0.681501C135.265 0.681501 135.406 0.697167 135.562 0.7285C135.656 2.1385 135.703 3.53283 135.703 4.9115C135.703 5.63217 135.688 6.38417 135.656 7.1675C135.656 7.9195 135.656 8.6715 135.656 9.4235C135.656 9.86217 135.656 10.2852 135.656 10.6925C135.656 11.0998 135.672 11.5228 135.703 11.9615C136.079 11.8048 136.424 11.6012 136.737 11.3505C137.082 11.0998 137.395 10.8492 137.677 10.5985C137.991 10.3165 138.304 10.0502 138.617 9.7995C138.931 9.54883 139.26 9.3295 139.604 9.1415C140.262 9.2355 140.983 9.40783 141.766 9.6585C142.55 9.90917 143.286 10.1912 143.975 10.5045C144.665 10.8178 145.244 11.1312 145.714 11.4445C146.184 11.7578 146.419 12.0398 146.419 12.2905V14.9695V22.2545V24.9335C146.419 25.3722 146.404 25.8422 146.372 26.3435C146.372 26.8135 146.372 27.2835 146.372 27.7535C146.372 29.0382 146.419 30.3542 146.513 31.7015C146.858 31.8582 147.203 31.9835 147.547 32.0775C147.892 32.1715 148.221 32.2968 148.534 32.4535C148.284 33.5188 147.829 34.4902 147.171 35.3675C146.513 36.2448 145.934 37.1535 145.432 38.0935C144.367 37.8742 143.333 37.5608 142.33 37.1535C141.328 36.7462 140.341 36.3075 139.369 35.8375V31.7015V20.3275V16.1915C139.025 16.0348 138.68 15.8782 138.335 15.7215C138.022 15.5335 137.693 15.3612 137.348 15.2045C136.878 15.5178 136.408 15.7685 135.938 15.9565C135.876 16.9905 135.813 18.0245 135.75 19.0585C135.719 20.0612 135.703 21.0795 135.703 22.1135C135.703 23.4608 135.719 24.8082 135.75 26.1555C135.782 27.5028 135.797 28.8502 135.797 30.1975V31.7015C135.923 31.7955 136.095 31.8895 136.314 31.9835C136.565 32.0462 136.784 32.1245 136.972 32.2185C137.192 32.2812 137.38 32.3752 137.536 32.5005C137.693 32.5945 137.771 32.7512 137.771 32.9705C137.771 33.4405 137.599 33.9732 137.254 34.5685C136.91 35.1325 136.518 35.6652 136.079 36.1665C135.578 36.7618 135.014 37.3572 134.387 37.9525C133.792 37.9525 133.165 37.8585 132.507 37.6705C131.849 37.4512 131.238 37.2005 130.674 36.9185C130.11 36.6365 129.64 36.3388 129.264 36.0255C128.92 35.6808 128.747 35.3832 128.747 35.1325V27.7535V14.5465C128.747 12.4785 128.732 10.4575 128.7 8.4835C128.669 6.47817 128.653 4.4415 128.653 2.3735C128.653 2.15417 128.716 1.98183 128.841 1.8565C128.998 1.69983 129.17 1.59017 129.358 1.5275C129.546 1.46483 129.75 1.41783 129.969 1.3865C130.189 1.35517 130.392 1.32383 130.58 1.2925Z" fill="black"/>
<path d="M151.855 2.7495C152.356 2.43617 152.889 2.20117 153.453 2.0445C154.048 1.8565 154.644 1.73117 155.239 1.6685C155.834 1.60583 156.43 1.5745 157.025 1.5745C157.652 1.54317 158.263 1.51183 158.858 1.4805C158.889 2.0445 158.905 2.62417 158.905 3.2195C158.905 3.81483 158.905 4.3945 158.905 4.9585V7.7785C158.905 8.21717 158.905 8.65583 158.905 9.0945C158.905 9.50183 158.936 9.92483 158.999 10.3635C159.281 10.3322 159.563 10.3008 159.845 10.2695C160.158 10.2382 160.488 10.2068 160.832 10.1755C160.926 10.4262 161.005 10.6768 161.067 10.9275C161.13 11.1782 161.161 11.4445 161.161 11.7265C161.161 12.1025 161.098 12.4942 160.973 12.9015C160.879 13.3088 160.801 13.7318 160.738 14.1705C160.425 14.2332 160.127 14.2802 159.845 14.3115C159.563 14.3115 159.25 14.3428 158.905 14.4055C158.968 17.2568 158.999 20.1082 158.999 22.9595C158.999 25.7795 158.999 28.6152 158.999 31.4665C158.999 31.8112 159.093 32.0305 159.281 32.1245C159.469 32.2185 159.673 32.3125 159.892 32.4065C160.143 32.5005 160.362 32.6415 160.55 32.8295C160.769 33.0175 160.879 33.3778 160.879 33.9105C160.346 34.5998 159.876 35.3362 159.469 36.1195C159.062 36.8715 158.529 37.5295 157.871 38.0935C156.868 37.9682 155.928 37.7175 155.051 37.3415C154.174 36.9655 153.25 36.6522 152.278 36.4015C152.216 35.0542 152.168 33.7225 152.137 32.4065C152.137 31.0592 152.137 29.7118 152.137 28.3645V19.5285V14.5935C151.855 14.5622 151.573 14.5465 151.291 14.5465C151.009 14.5152 150.758 14.4682 150.539 14.4055C150.351 14.3428 150.195 14.2175 150.069 14.0295C149.944 13.8415 149.881 13.5595 149.881 13.1835C149.881 12.7448 149.912 12.2905 149.975 11.8205C150.038 11.3192 150.1 10.8335 150.163 10.3635C150.476 10.3635 150.711 10.3792 150.868 10.4105C151.025 10.4418 151.15 10.4262 151.244 10.3635C151.369 10.3008 151.479 10.1912 151.573 10.0345C151.698 9.8465 151.871 9.53317 152.09 9.0945C152.059 8.09183 152.059 7.24583 152.09 6.5565C152.121 5.83583 152.137 5.2405 152.137 4.7705C152.137 4.26917 152.121 3.8775 152.09 3.5955C152.059 3.28217 151.98 3.00017 151.855 2.7495Z" fill="black"/>
</svg>
